<svg id="Calque_1" data-name="Calque 1" xmlns="http://www.w3.org/2000/svg" viewBox="0 0 300 10.08"><defs><style>.cls-1{fill:#40171d;}</style></defs><title>menu-1</title><path class="cls-1" d="M295.22,23.16c-20.94-.71-41.88-1.15-62.81-2-3.31-.14-6.63-.2-9.94-.2-23.18,0-46.31,2.84-69.51,1.17-44.35.55-88.67-.57-133-1.89-5.27-.16-10.71-1-15.79,1.49C1.54,23-.81,24.7.27,28c1,3,3.85,1.42,5.84,1.47,29.43.78,58.79-1.88,88.23-1.38,27,.46,54.06.23,81.09.36,40,.19,79.94,3.62,119.9-.12,1.89-.18,4.74.69,4.68-2.55C299.94,22.68,297.12,23.23,295.22,23.16Z" transform="translate(0 -19.96)"/></svg>