<svg id="Calque_1" data-name="Calque 1" xmlns="http://www.w3.org/2000/svg" viewBox="0 0 300 14.44"><defs><style>.cls-1{fill:#d18f44;}</style></defs><title>menu-2</title><path class="cls-1" d="M295.33,25.62c-8.72-1.17-17.57-1.84-25.9-4.78a26.13,26.13,0,0,0-10.83-1.42C207.45,23,156.2,23.77,105,24.89l-28.72.61-28.72.59c-1.24-.09-2.49-.17-3.73-.22a61.55,61.55,0,0,0-11.19.39L16.4,26A114.56,114.56,0,0,0,0,26.13l.06,1.51H16l16.58-.15,14.93,0q45.39.94,90.78,1.88c33.49.7,67,1.66,100.44,3.44,13.15.7,26.2,2.49,39.28-2.11,6.88-2.42,14.62-2.39,22-3.47C298.78,25.61,297,25.84,295.33,25.62Z" transform="translate(0 -19.35)"/></svg>