<svg id="Calque_1" data-name="Calque 1" xmlns="http://www.w3.org/2000/svg" viewBox="0 0 300 10.43"><defs><style>.cls-1{fill:#b5f47e;}</style></defs><title>menu-4</title><path class="cls-1" d="M300,22.78A108,108,0,0,0,286.29,21c-13.68-.94-27.26.25-40.8.17-14.62-1.08-29.26-1.26-43.92-.9l-45.45,2.24c-8.83-.18-17.68-.14-26.51-.43-4-.13-7.95-.32-11.91-.63q-2-.15-4-.35L110.11,21c-1.21,0-2.41-.1-3.62-.19a243,243,0,0,0-29.74-.31,339.26,339.26,0,0,1-38.51-.18c-11.71-1-23.48,1.75-35.19-.47A2.25,2.25,0,0,0,.52,21.16a5.85,5.85,0,0,0,5.07,8.22c10.91.5,21.76-.93,32.65-.84,12.84,1.35,25.68.8,38.52,0,6.16-.12,12.33-.17,18.49-.09s12.32.3,18.48.71l5.66.25,6.18.28c3.95.17,7.89.32,11.84.36,1.56,0,3.12.06,4.67.1a76.18,76.18,0,0,0,14-.52c.75.1,1.51.28,2.26.35a5.41,5.41,0,0,0,.75,0q21.22-1.13,42.44-2.34l44,.17c1.15,0,2.3.09,3.45.05,14.69-.55,29.33-2.5,44.07-1.53,2.18.14,4.37,0,6.55,0-3.19-2.6-7.31-.32-10.61-2.84C292.61,22.71,296.33,25.63,300,22.78Z" transform="translate(0 -19.79)"/></svg>